# xmcd
#
# Track frame offsets: 
#        155
#        14278
#        28140
#        40673
#        54450
#        69178
#        83498
#        96778
#        110085
#        124443
#        139115
#        154088
#        169735
#        185155
#        199535
#        214475
#        229218
#        244358
#        258983
#        273045
#
# Disc length: 3824 seconds
#
# Revision: 1
# Processed by: cddbd v1.5.2PL0 Copyright (c) Steve Scherf et al.
# Submitted via: ExactAudioCopy v0.99pb5
#
DISCID=1c0eee14
DTITLE=Teddy Wilson - Warmin' Up
DYEAR=1992
DGENRE=Jazz
TTITLE0=Life Begins When You're In Love
TTITLE1=Rhythm In My Nursery Rhymes
TTITLE2=Christopher Columbus
TTITLE3=My Melancholy Baby
TTITLE4=All My Life
TTITLE5=I Found A Dream
TTITLE6=On Treasure Island
TTITLE7=Mary Had A Little Lamb
TTITLE8=Too Good To Be True
TTITLE9=Warmin' Up
TTITLE10=Blues In C Sharp Minor
TTITLE11=It's Like Reaching For The Moon
TTITLE12=These Foolish Things
TTITLE13=Why Do I Lie To Myself About You
TTITLE14=I Cried For You
TTITLE15=Guess Who
TTITLE16=I Feel Like A Feather In The Breeze
TTITLE17=Breaking In A Pair Of Shoes
TTITLE18=You Came To My Rescue
TTITLE19=Here's Love In Your Eyes
EXTD=YEAR: 1988
EXTT0=
EXTT1=
EXTT2=
EXTT3=
EXTT4=
EXTT5=
EXTT6=
EXTT7=
EXTT8=
EXTT9=
EXTT10=
EXTT11=
EXTT12=
EXTT13=
EXTT14=
EXTT15=
EXTT16=
EXTT17=
EXTT18=
EXTT19=
PLAYORDER=
